<?xml version="1.0" encoding="UTF-8" standalone="no"?>
<!DOCTYPE svg PUBLIC "-//W3C//DTD SVG 1.1//EN" "http://www.w3.org/Graphics/SVG/1.1/DTD/svg11.dtd">
<svg width="100%" height="100%" viewBox="0 0 476 490" version="1.1" xmlns="http://www.w3.org/2000/svg" xmlns:xlink="http://www.w3.org/1999/xlink" xml:space="preserve" xmlns:serif="http://www.serif.com/" style="fill-rule:evenodd;clip-rule:evenodd;stroke-linecap:round;stroke-linejoin:round;stroke-miterlimit:1.5;">
    <g transform="matrix(1,0,0,1,-1559.55,-1777.22)">
        <circle cx="1797.09" cy="2028.9" r="231.545" style="fill:rgb(34,35,36);stroke:rgb(78,77,89);stroke-width:12px;"/>
        <g transform="matrix(0.878457,0,0,1.20717,215.206,-451.945)">
            <path d="M1954.58,1982.41C1954.58,1971.1 1941.98,1961.94 1926.45,1961.94C1867.91,1961.94 1733.59,1961.94 1675.06,1961.94C1659.53,1961.94 1646.93,1971.1 1646.93,1982.41C1646.93,2018.25 1646.93,2091.94 1646.93,2127.78C1646.93,2139.09 1659.53,2148.25 1675.06,2148.25C1733.59,2148.25 1867.91,2148.25 1926.45,2148.25C1941.98,2148.25 1954.58,2139.09 1954.58,2127.78C1954.58,2091.94 1954.58,2018.25 1954.58,1982.41Z" style="fill:rgb(78,77,89);"/>
        </g>
        <g transform="matrix(0.125088,0,0,0.061375,1476.45,1996.52)">
            <rect x="1646.93" y="1961.94" width="307.644" height="186.31" style="fill:rgb(24,24,25);"/>
        </g>
        <g transform="matrix(0.125088,0,0,0.061375,1524.14,1996.52)">
            <rect x="1646.93" y="1961.94" width="307.644" height="186.31" style="fill:rgb(24,24,25);"/>
        </g>
        <g transform="matrix(0.125088,0,0,0.061375,1571.84,1996.52)">
            <rect x="1646.93" y="1961.94" width="307.644" height="186.31" style="fill:rgb(24,24,25);"/>
        </g>
        <g transform="matrix(0.125088,0,0,0.061375,1619.53,1996.52)">
            <rect x="1646.93" y="1961.94" width="307.644" height="186.31" style="fill:rgb(24,24,25);"/>
        </g>
        <g transform="matrix(0.125088,0,0,0.061375,1667.23,1996.52)">
            <rect x="1646.93" y="1961.94" width="307.644" height="186.31" style="fill:rgb(24,24,25);"/>
        </g>
        <g transform="matrix(0.125088,0,0,0.061375,1476.45,1806.72)">
            <rect x="1646.93" y="1961.94" width="307.644" height="186.31" style="fill:rgb(24,24,25);"/>
        </g>
        <g transform="matrix(0.125088,0,0,0.061375,1524.14,1806.72)">
            <rect x="1646.93" y="1961.94" width="307.644" height="186.31" style="fill:rgb(24,24,25);"/>
        </g>
        <g transform="matrix(0.125088,0,0,0.061375,1571.84,1806.72)">
            <rect x="1646.93" y="1961.94" width="307.644" height="186.31" style="fill:rgb(24,24,25);"/>
        </g>
        <g transform="matrix(0.125088,0,0,0.061375,1619.53,1806.72)">
            <rect x="1646.93" y="1961.94" width="307.644" height="186.31" style="fill:rgb(24,24,25);"/>
        </g>
        <g transform="matrix(0.125088,0,0,0.061375,1667.23,1806.72)">
            <rect x="1646.93" y="1961.94" width="307.644" height="186.31" style="fill:rgb(24,24,25);"/>
        </g>
        <g transform="matrix(0.342518,0,0,0.342518,1283.26,1156.26)">
            <text x="1371.41px" y="2704.35px" style="font-family:'ArialRoundedMTBold', 'Arial Rounded MT Bold', sans-serif;font-size:446.957px;fill:rgb(24,24,25);">?</text>
        </g>
        <g transform="matrix(0.802672,0,0,0.802672,745.137,408.751)">
            <circle cx="1556.01" cy="1788.86" r="19.724" style="fill:rgb(34,35,36);"/>
        </g>
        <g transform="matrix(0.802672,0,0,0.802672,388.791,373.581)">
            <circle cx="1556.01" cy="1788.86" r="19.724" style="fill:rgb(34,35,36);"/>
        </g>
        <g transform="matrix(0.507043,0,0,0.507043,822.96,931.759)">
            <circle cx="1556.01" cy="1788.86" r="19.724" style="fill:rgb(34,35,36);"/>
        </g>
        <g transform="matrix(0.305649,0,0,0.305649,1427.24,1236.49)">
            <circle cx="1556.01" cy="1788.86" r="19.724" style="fill:rgb(34,35,36);"/>
        </g>
        <g transform="matrix(0.69785,0,0,0.69785,544.357,985.414)">
            <circle cx="1556.01" cy="1788.86" r="19.724" style="fill:rgb(34,35,36);"/>
        </g>
        <g transform="matrix(0.298903,0,0,0.280398,1198.54,1758.85)">
            <circle cx="1556.01" cy="1788.86" r="19.724" style="fill:rgb(34,35,36);"/>
        </g>
        <g transform="matrix(0.240449,0,0,0.240449,1637.79,1384.06)">
            <circle cx="1556.01" cy="1788.86" r="19.724" style="fill:rgb(34,35,36);"/>
        </g>
    </g>
</svg>
