<?xml version="1.0" encoding="UTF-8" standalone="no"?>
<!DOCTYPE svg PUBLIC "-//W3C//DTD SVG 1.1//EN" "http://www.w3.org/Graphics/SVG/1.1/DTD/svg11.dtd">
<svg width="100%" height="100%" viewBox="0 0 153 154" version="1.1" xmlns="http://www.w3.org/2000/svg" xmlns:xlink="http://www.w3.org/1999/xlink" xml:space="preserve" xmlns:serif="http://www.serif.com/" style="fill-rule:evenodd;clip-rule:evenodd;stroke-linejoin:round;stroke-miterlimit:2;">
    <g transform="matrix(1,0,0,1,-299.471,-126.869)">
        <g>
            <g transform="matrix(0.911307,0.411728,-0.411728,0.911307,162.194,-94.545)">
                <path d="M288.572,117.976C289.604,116.292 291.4,115.226 293.373,115.125C295.346,115.025 297.241,115.903 298.439,117.474C301.537,121.589 305.695,127.278 310.131,133.819C322.392,151.898 336.774,176.485 336.774,192.344C336.774,210.37 318.191,240.632 305.263,259.501C302.299,263.817 297.523,266.538 292.3,266.888C287.076,267.238 281.98,265.177 278.467,261.295C264.921,246.221 246.846,222.874 246.846,205.592C246.846,193.854 250.663,172.817 262.116,157.46C272.501,143.535 282.858,127.234 288.572,117.976Z" style="fill:rgb(109,191,154);"/>
            </g>
            <g transform="matrix(0.911527,-0.41124,0.41124,0.911527,49.8755,234.73)">
                <path d="M344.985,41.795C345.153,41.932 345.314,42.079 345.467,42.236C346.847,43.649 347.441,45.652 347.055,47.589C346.018,52.635 344.501,59.516 342.528,67.169C337.076,88.322 328.146,115.371 316.251,125.859C302.73,137.781 267.742,143.856 245.039,146.64C239.842,147.27 234.642,145.488 230.925,141.801C230.361,141.242 229.84,140.648 229.366,140.025C229.53,139.863 229.641,139.7 229.695,139.537C230.291,137.716 285.957,102.255 293.041,97.451C310.356,85.71 331.317,53.088 344.985,41.795Z" style="fill:rgb(78,172,130);"/>
            </g>
        </g>
        <g transform="matrix(0.969177,0.246366,-0.246366,0.969177,73.2352,-65.2695)">
            <g transform="matrix(0.661361,0.750067,-0.750067,0.661361,320.922,-130.615)">
                <path d="M288.572,117.976C289.604,116.292 291.4,115.226 293.373,115.125C295.346,115.025 297.241,115.903 298.439,117.474C301.537,121.589 305.695,127.278 310.131,133.819C322.392,151.898 336.774,176.485 336.774,192.344C336.774,210.37 318.191,240.632 305.263,259.501C302.299,263.817 297.523,266.538 292.3,266.888C287.076,267.238 281.98,265.177 278.467,261.295C264.921,246.221 246.846,222.874 246.846,205.592C246.846,193.854 250.663,172.817 262.116,157.46C272.501,143.535 282.858,127.234 288.572,117.976Z" style="fill:rgb(142,216,183);"/>
            </g>
            <g transform="matrix(1,0,0,1,83.1294,123.337)">
                <path d="M344.985,41.795C345.153,41.932 345.314,42.079 345.467,42.236C346.847,43.649 347.441,45.652 347.055,47.589C346.018,52.635 344.501,59.516 342.528,67.169C337.076,88.322 328.146,115.371 316.251,125.859C302.73,137.781 267.742,143.856 245.039,146.64C239.842,147.27 234.642,145.488 230.925,141.801C230.361,141.242 229.84,140.648 229.366,140.025C229.53,139.863 229.641,139.7 229.695,139.537C230.291,137.716 285.957,102.255 293.041,97.451C310.356,85.71 331.317,53.088 344.985,41.795Z" style="fill:rgb(107,191,154);"/>
            </g>
        </g>
    </g>
</svg>
