<?xml version="1.0" standalone="no"?>
<!DOCTYPE svg PUBLIC "-//W3C//DTD SVG 20010904//EN"
 "http://www.w3.org/TR/2001/REC-SVG-20010904/DTD/svg10.dtd">
<svg version="1.0" xmlns="http://www.w3.org/2000/svg"
 width="429.000000pt" height="429.000000pt" viewBox="0 0 429.000000 429.000000"
 preserveAspectRatio="xMidYMid meet">
<metadata>
Created by potrace 1.14, written by Peter Selinger 2001-2017
</metadata>
<g transform="translate(0.000000,429.000000) scale(0.100000,-0.100000)"
fill="#000000" stroke="none">
<path d="M860 4266 c-179 -40 -303 -95 -433 -194 -201 -153 -362 -404 -402
-627 -4 -22 -10 -49 -13 -60 -4 -11 -7 -553 -9 -1205 -2 -1285 -3 -1266 53
-1434 106 -321 362 -577 679 -679 44 -14 96 -29 115 -33 19 -4 46 -9 60 -12
14 -3 563 -7 1220 -8 l1195 -3 105 23 c128 29 183 48 279 97 234 122 424 335
511 571 20 56 44 139 56 198 12 54 15 2394 3 2465 -31 193 -89 335 -196 483
-165 225 -410 377 -688 427 -66 11 -284 14 -1255 14 l-1175 0 -105 -23z"/>
</g>
</svg>
