<?xml version="1.0" encoding="UTF-8" standalone="no"?>
<!DOCTYPE svg PUBLIC "-//W3C//DTD SVG 1.1//EN" "http://www.w3.org/Graphics/SVG/1.1/DTD/svg11.dtd">
<svg width="100%" height="100%" viewBox="0 0 14 136" version="1.1" xmlns="http://www.w3.org/2000/svg" xmlns:xlink="http://www.w3.org/1999/xlink" xml:space="preserve" xmlns:serif="http://www.serif.com/" style="fill-rule:evenodd;clip-rule:evenodd;stroke-linejoin:round;stroke-miterlimit:2;">
    <g transform="matrix(1,0,0,1,-310.274,-61.8357)">
        <g>
            <g transform="matrix(1,0,0,1,92.5772,-12.339)">
                <circle cx="224.478" cy="80.956" r="6.781" style="fill:rgb(49,57,68);"/>
            </g>
            <g transform="matrix(1,0,0,1,92.5772,-12.339)">
                <path d="M217.697,80.956C217.697,78.942 219.638,82.715 222.773,84.546C225.466,86.118 229.488,85.611 228.791,86.186C227.619,87.154 226.116,87.736 224.478,87.736C220.736,87.736 217.697,84.698 217.697,80.956Z" style="fill:rgb(100,111,125);"/>
            </g>
        </g>
        <g transform="matrix(1,0,0,1,0,13.5617)">
            <g transform="matrix(1,0,0,1,92.5772,-12.339)">
                <circle cx="224.478" cy="80.956" r="6.781" style="fill:rgb(49,57,68);"/>
            </g>
            <g transform="matrix(1,0,0,1,92.5772,-12.339)">
                <path d="M217.697,80.956C217.697,78.942 219.638,82.715 222.773,84.546C225.466,86.118 229.488,85.611 228.791,86.186C227.619,87.154 226.116,87.736 224.478,87.736C220.736,87.736 217.697,84.698 217.697,80.956Z" style="fill:rgb(100,111,125);"/>
            </g>
        </g>
        <g transform="matrix(1,0,0,1,0,27.1234)">
            <g transform="matrix(1,0,0,1,92.5772,-12.339)">
                <circle cx="224.478" cy="80.956" r="6.781" style="fill:rgb(49,57,68);"/>
            </g>
            <g transform="matrix(1,0,0,1,92.5772,-12.339)">
                <path d="M217.697,80.956C217.697,78.942 219.638,82.715 222.773,84.546C225.466,86.118 229.488,85.611 228.791,86.186C227.619,87.154 226.116,87.736 224.478,87.736C220.736,87.736 217.697,84.698 217.697,80.956Z" style="fill:rgb(100,111,125);"/>
            </g>
        </g>
        <g transform="matrix(1,0,0,1,0,40.685)">
            <g transform="matrix(1,0,0,1,92.5772,-12.339)">
                <circle cx="224.478" cy="80.956" r="6.781" style="fill:rgb(49,57,68);"/>
            </g>
            <g transform="matrix(1,0,0,1,92.5772,-12.339)">
                <path d="M217.697,80.956C217.697,78.942 219.638,82.715 222.773,84.546C225.466,86.118 229.488,85.611 228.791,86.186C227.619,87.154 226.116,87.736 224.478,87.736C220.736,87.736 217.697,84.698 217.697,80.956Z" style="fill:rgb(100,111,125);"/>
            </g>
        </g>
        <g transform="matrix(1,0,0,1,0,54.2467)">
            <g transform="matrix(1,0,0,1,92.5772,-12.339)">
                <circle cx="224.478" cy="80.956" r="6.781" style="fill:rgb(49,57,68);"/>
            </g>
            <g transform="matrix(1,0,0,1,92.5772,-12.339)">
                <path d="M217.697,80.956C217.697,78.942 219.638,82.715 222.773,84.546C225.466,86.118 229.488,85.611 228.791,86.186C227.619,87.154 226.116,87.736 224.478,87.736C220.736,87.736 217.697,84.698 217.697,80.956Z" style="fill:rgb(100,111,125);"/>
            </g>
        </g>
        <g transform="matrix(1,0,0,1,0,67.8084)">
            <g transform="matrix(1,0,0,1,92.5772,-12.339)">
                <circle cx="224.478" cy="80.956" r="6.781" style="fill:rgb(49,57,68);"/>
            </g>
            <g transform="matrix(1,0,0,1,92.5772,-12.339)">
                <path d="M217.697,80.956C217.697,78.942 219.638,82.715 222.773,84.546C225.466,86.118 229.488,85.611 228.791,86.186C227.619,87.154 226.116,87.736 224.478,87.736C220.736,87.736 217.697,84.698 217.697,80.956Z" style="fill:rgb(100,111,125);"/>
            </g>
        </g>
        <g transform="matrix(1,0,0,1,0,81.3701)">
            <g transform="matrix(1,0,0,1,92.5772,-12.339)">
                <circle cx="224.478" cy="80.956" r="6.781" style="fill:rgb(49,57,68);"/>
            </g>
            <g transform="matrix(1,0,0,1,92.5772,-12.339)">
                <path d="M217.697,80.956C217.697,78.942 219.638,82.715 222.773,84.546C225.466,86.118 229.488,85.611 228.791,86.186C227.619,87.154 226.116,87.736 224.478,87.736C220.736,87.736 217.697,84.698 217.697,80.956Z" style="fill:rgb(100,111,125);"/>
            </g>
        </g>
        <g transform="matrix(1,0,0,1,0,94.9318)">
            <g transform="matrix(1,0,0,1,92.5772,-12.339)">
                <circle cx="224.478" cy="80.956" r="6.781" style="fill:rgb(49,57,68);"/>
            </g>
            <g transform="matrix(1,0,0,1,92.5772,-12.339)">
                <path d="M217.697,80.956C217.697,78.942 219.638,82.715 222.773,84.546C225.466,86.118 229.488,85.611 228.791,86.186C227.619,87.154 226.116,87.736 224.478,87.736C220.736,87.736 217.697,84.698 217.697,80.956Z" style="fill:rgb(100,111,125);"/>
            </g>
        </g>
        <g transform="matrix(1,0,0,1,0,108.493)">
            <g transform="matrix(1,0,0,1,92.5772,-12.339)">
                <circle cx="224.478" cy="80.956" r="6.781" style="fill:rgb(49,57,68);"/>
            </g>
            <g transform="matrix(1,0,0,1,92.5772,-12.339)">
                <path d="M217.697,80.956C217.697,78.942 219.638,82.715 222.773,84.546C225.466,86.118 229.488,85.611 228.791,86.186C227.619,87.154 226.116,87.736 224.478,87.736C220.736,87.736 217.697,84.698 217.697,80.956Z" style="fill:rgb(100,111,125);"/>
            </g>
        </g>
        <g transform="matrix(1,0,0,1,0,122.055)">
            <g transform="matrix(1,0,0,1,92.5772,-12.339)">
                <circle cx="224.478" cy="80.956" r="6.781" style="fill:rgb(49,57,68);"/>
            </g>
            <g transform="matrix(1,0,0,1,92.5772,-12.339)">
                <path d="M217.697,80.956C217.697,78.942 219.638,82.715 222.773,84.546C225.466,86.118 229.488,85.611 228.791,86.186C227.619,87.154 226.116,87.736 224.478,87.736C220.736,87.736 217.697,84.698 217.697,80.956Z" style="fill:rgb(100,111,125);"/>
            </g>
        </g>
    </g>
</svg>
